<?xml version="1.0" encoding="utf-8"?>
<!-- Generator: Adobe Illustrator 16.0.0, SVG Export Plug-In . SVG Version: 6.00 Build 0)  -->
<!DOCTYPE svg PUBLIC "-//W3C//DTD SVG 1.1//EN" "http://www.w3.org/Graphics/SVG/1.1/DTD/svg11.dtd">
<svg version="1.1" id="Слой_1" xmlns="http://www.w3.org/2000/svg" xmlns:xlink="http://www.w3.org/1999/xlink" x="0px" y="0px"
	 width="240.156px" height="36.342px" viewBox="0 0 240.156 36.342" enable-background="new 0 0 240.156 36.342"
	 xml:space="preserve">
<g>
	<g>
		<g>
			<path fill-rule="evenodd" clip-rule="evenodd" fill="#808285" d="M0,27.843C4.979,27.176,6.738,18.9,6.738,6.885V3.476H3.977
				V0.022h17.367c1.885,0,2.68,0.671,2.68,2.56v24.347c0,0.581,0.336,0.914,0.92,0.914h1.801v3.474h-4.23
				c-1.883,0-2.676-0.793-2.676-2.68V4.389c0-0.625-0.336-0.913-0.924-0.913h-8.201v3.45c0,14.152-2.551,24.432-10.713,24.891
				V27.843z"/>
			<path fill-rule="evenodd" clip-rule="evenodd" fill="#808285" d="M62.902,28.417c3.264,0,5.941-2.386,5.941-6.448
				c0-4.141-2.678-6.445-5.857-6.445c-3.561,0-6.07,2.676-6.07,6.365C56.916,26.031,59.598,28.417,62.902,28.417L62.902,28.417z
				 M52.646,18.916c0-6.904,1.508-11.136,7.201-13.646l4.641-2.049c1.971-0.838,2.43-1.256,2.43-2.216V0h3.936v1.836
				c0,2.763-1.508,3.476-4.352,4.607l-4.98,2.135c-3.602,1.549-4.896,4.27-4.98,7.492h0.039c2.01-3.098,4.648-3.938,7.369-3.938
				c5.314,0,9.078,3.77,9.078,9.756c0,6.104-4.307,9.998-10.211,9.998C55.242,31.887,52.646,25.946,52.646,18.916z"/>
			<path fill-rule="evenodd" clip-rule="evenodd" fill="#808285" d="M75.238,27.843h1.092c0.498,0,0.75-0.245,0.791-0.794
				l1.465-16.91h4.438l5.523,12.142c0.543,1.249,1.09,2.632,1.09,2.632h0.041c0,0,0.586-1.383,1.133-2.632l5.48-12.142h4.434
				l1.465,16.91c0.043,0.549,0.295,0.794,0.797,0.794h1.09v3.474h-3.098c-1.76,0-2.178-0.793-2.303-2.301L97.879,19.01
				c-0.082-1.293-0.082-3.764-0.082-3.764h-0.086c0,0-0.5,1.548-1.252,3.179l-4.941,10.341h-3.85l-4.852-10.341
				c-0.67-1.548-1.217-3.221-1.217-3.221h-0.082c0,0,0,2.513-0.086,3.806l-0.795,10.006c-0.125,1.508-0.541,2.301-2.299,2.301h-3.1
				V27.843z"/>
			<path fill-rule="evenodd" clip-rule="evenodd" fill="#808285" d="M143.768,27.843V14.535c0-0.622-0.336-0.918-0.924-0.918h-5.271
				v0.918c0,2.93-0.086,9.293-3.264,13.308H143.768L143.768,27.843z M129.873,27.843h0.332c3.391-3.932,3.516-10.168,3.516-13.267
				v-0.959h-2.592v-3.479h14.02c1.881,0,2.68,0.798,2.68,2.676v15.028h0.67c1.838,0,2.551,0.923,2.551,2.722v5.777h-3.725v-4.107
				c0-0.584-0.336-0.918-0.881-0.918h-14.521c-0.543,0-0.879,0.334-0.879,0.918v4.107h-3.723v-5.777
				C127.32,28.766,128.029,27.843,129.873,27.843z"/>
			<path fill-rule="evenodd" clip-rule="evenodd" fill="#808285" d="M155.109,14.535c0-0.622-0.34-0.918-0.883-0.918h-1.676v-3.479
				h3.727c1.883,0,2.68,0.756,2.68,2.643v10.086c0,1.127-0.129,2.719-0.168,2.93h0.084c0.166-0.338,1.254-1.969,1.969-2.93
				l9.123-12.729h4.016v16.79c0,0.622,0.338,0.914,0.881,0.914h1.674v3.474h-3.729c-1.883,0-2.678-0.793-2.678-2.68V18.593
				c0-1.044,0.131-2.638,0.168-2.972h-0.084c-0.166,0.379-1.254,2.008-1.969,2.972l-9.121,12.724h-4.014V14.535z"/>
			<path fill-rule="evenodd" clip-rule="evenodd" fill="#808285" d="M187.871,28.596c3.512,0,5.691-3.601,5.691-6.734v-0.798h-1.086
				c-3.057,0-8.578,0.292-8.578,4.1C183.898,26.879,185.234,28.596,187.871,28.596L187.871,28.596z M192.643,18.133h0.92v-0.29
				c0-3.642-1.42-4.983-4.686-4.983c-1.006,0-3.475,0.254-3.475,1.634v1.219h-3.848V13.57c0-3.389,5.313-3.927,7.238-3.927
				c6.99,0,8.828,3.552,8.828,8.278v9.007c0,0.622,0.336,0.914,0.924,0.914h1.717v3.474h-3.85c-1.885,0-2.598-0.918-2.598-2.425
				c0-0.748,0.041-1.258,0.041-1.258h-0.082c0.041,0-1.801,4.188-6.82,4.188c-3.688,0-7.115-2.222-7.115-6.277
				C179.838,18.425,189.082,18.133,192.643,18.133z"/>
			<path fill-rule="evenodd" clip-rule="evenodd" fill="#808285" d="M38.42,28.596c3.518,0,5.693-3.601,5.693-6.734v-0.798h-1.088
				c-3.059,0-8.578,0.292-8.578,4.1C34.447,26.879,35.781,28.596,38.42,28.596L38.42,28.596z M43.195,18.133h0.918v-0.29
				c0-3.642-1.424-4.983-4.689-4.983c-1.004,0-3.473,0.254-3.473,1.634v1.219H32.1V13.57c0-3.389,5.318-3.927,7.242-3.927
				c6.99,0,8.832,3.552,8.832,8.278v9.007c0,0.622,0.336,0.914,0.918,0.914h1.715v3.474h-3.85c-1.881,0-2.594-0.918-2.594-2.425
				c0-0.748,0.041-1.258,0.041-1.258H44.32c0.043,0-1.797,4.188-6.82,4.188c-3.682,0-7.113-2.222-7.113-6.277
				C30.387,18.425,39.635,18.133,43.195,18.133z"/>
			<path fill-rule="evenodd" clip-rule="evenodd" fill="#808285" d="M125.396,19.561c0-5.488-3.141-9.917-9.123-9.917
				c-6.029,0-10.631,4.349-10.631,11.091c0,6.273,4.602,11.088,11.258,11.088c2.93,0,6.152-1.136,8.201-3.02l-1.711-2.973
				c-1.68,1.472-3.98,2.477-6.24,2.477c-3.809,0-7.072-2.551-7.324-7.16c0,0-0.051-0.496,0-1.35c0.059-0.848,0.168-1.33,0.168-1.33
				c0.588-3.555,3.055-5.652,6.197-5.652c2.762,0,5.02,1.93,5.146,5.652h-8.941c-0.148,0.641-0.291,1.596-0.197,2.68h13.07
				C125.355,20.602,125.396,20.059,125.396,19.561z"/>
		</g>
		<path fill-rule="evenodd" clip-rule="evenodd" fill="#808285" d="M223.732,3.457c-9.072,0-16.43,7.352-16.43,16.421
			s7.357,16.423,16.43,16.423c9.068,0,16.424-7.354,16.424-16.423S232.801,3.457,223.732,3.457z M231.545,20.572l-5.566,3.213
			l-5.566,3.21c-0.531,0.307-1.199-0.07-1.199-0.692V13.455c0-0.617,0.668-1.002,1.199-0.694l5.566,3.212l5.566,3.217
			C232.076,19.492,232.076,20.268,231.545,20.572z"/>
	</g>
</g>
</svg>
